STARTFONT 2.1
FONT -Tandy Radio Shack-TRS80-regular-upright-normal-Ancient-12-120-75-75-monospaced-60-ISO8859-1
SIZE 12 75 75
FONTBOUNDINGBOX 6 12 0 0
STARTPROPERTIES 21
FONTNAME_REGISTRY "TRS80"
FOUNDRY "Tandy Radio Shack"
FAMILY_NAME "TRS80"
WEIGHT_NAME "regular"
SLANT "upright"
SETWIDTH_NAME "normal"
ADD_STYLE_NAME "Ancient"
PIXEL_SIZE 12
POINT_SIZE 120
RESOLUTION_X 75
RESOLUTION_Y 75
SPACING "monospaced"
AVERAGE_WIDTH 60
CHARSET_REGISTRY "ISO8859"
CHARSET_ENCODING "1"
DEFAULT_CHAR 0
FONT_DESCENT 0
FONT_ASCENT 16
COPYRIGHT "Tandy Radio Shack (1978)"
CAP_HEIGHT 12
X_HEIGHT 9
ENDPROPERTIES
CHARS 256
STARTCHAR "control nul"
ENCODING 0
SWIDTH 1041 0
DWIDTH 6 12
BBX 6 12 0 0
BITMAP
0000
0000
0000
0000
0000
0780
0400
0400
0400
0400
0400
0400
ENDCHAR
STARTCHAR "control soh"
ENCODING 1
SWIDTH 1041 0
DWIDTH 6 12
BBX 6 12 0 0
BITMAP
0000
0000
0000
0000
0000
0780
0400
0400
0400
0400
0400
0400
ENDCHAR
STARTCHAR "control stx"
ENCODING 2
SWIDTH 1041 0
DWIDTH 6 12
BBX 6 12 0 0
BITMAP
0000
0000
0000
0000
0000
0080
0080
0080
0080
0080
0080
0080
ENDCHAR
STARTCHAR "control etx"
ENCODING 3
SWIDTH 1041 0
DWIDTH 6 12
BBX 6 12 0 0
BITMAP
0000
0000
0000
0000
0000
0000
0000
0000
0000
0000
0000
0000
ENDCHAR
STARTCHAR "control eot"
ENCODING 4
SWIDTH 1041 0
DWIDTH 6 12
BBX 6 12 0 0
BITMAP
0000
0000
0000
0000
0000
0300
0080
0080
0000
0380
0380
0080
ENDCHAR
STARTCHAR "control enq"
ENCODING 5
SWIDTH 1041 0
DWIDTH 6 12
BBX 6 12 0 0
BITMAP
0000
0000
0000
0000
0000
0780
0400
0400
0700
0480
0480
0700
ENDCHAR
STARTCHAR "control ack"
ENCODING 6
SWIDTH 1041 0
DWIDTH 6 12
BBX 6 12 0 0
BITMAP
0000
0000
0000
0000
0000
0000
0000
0000
0000
0480
0480
0700
ENDCHAR
STARTCHAR "control bel"
ENCODING 7
SWIDTH 1041 0
DWIDTH 6 12
BBX 6 12 0 0
BITMAP
0000
0000
0000
0000
0000
0380
0400
0400
0400
0780
0780
0300
ENDCHAR
STARTCHAR "control bs"
ENCODING 8
SWIDTH 1041 0
DWIDTH 6 12
BBX 6 12 0 0
BITMAP
0000
0000
0000
0000
0000
0080
0300
0300
0780
0300
0300
0080
ENDCHAR
STARTCHAR "control ht"
ENCODING 9
SWIDTH 1041 0
DWIDTH 6 12
BBX 6 12 0 0
BITMAP
0000
0000
0000
0000
0000
0000
0080
0080
0000
0780
0780
0000
ENDCHAR
STARTCHAR "control lf"
ENCODING 10
SWIDTH 1041 0
DWIDTH 6 12
BBX 6 12 0 0
BITMAP
0000
0000
0000
0000
0000
0780
0000
0000
0000
0780
0780
0000
ENDCHAR
STARTCHAR "control vt"
ENCODING 11
SWIDTH 1041 0
DWIDTH 6 12
BBX 6 12 0 0
BITMAP
0000
0000
0000
0000
0000
0000
0080
0080
0080
0480
0480
0380
ENDCHAR
STARTCHAR "control ff"
ENCODING 12
SWIDTH 1041 0
DWIDTH 6 12
BBX 6 12 0 0
BITMAP
0000
0000
0000
0000
0000
0080
0480
0480
0380
0080
0080
0480
ENDCHAR
STARTCHAR "control cr"
ENCODING 13
SWIDTH 1041 0
DWIDTH 6 12
BBX 6 12 0 0
BITMAP
0000
0000
0000
0000
0000
0000
0080
0080
0300
0780
0780
0300
ENDCHAR
STARTCHAR "control so"
ENCODING 14
SWIDTH 1041 0
DWIDTH 6 12
BBX 6 12 0 0
BITMAP
0000
0000
0000
0000
0000
0380
0400
0400
0700
0480
0480
0700
ENDCHAR
STARTCHAR "control si"
ENCODING 15
SWIDTH 1041 0
DWIDTH 6 12
BBX 6 12 0 0
BITMAP
0000
0000
0000
0000
0000
0380
0400
0400
0400
0480
0480
0400
ENDCHAR
STARTCHAR "control dle"
ENCODING 16
SWIDTH 1041 0
DWIDTH 6 12
BBX 6 12 0 0
BITMAP
0000
0000
0000
0000
0000
0780
0400
0400
0400
0780
0780
0400
ENDCHAR
STARTCHAR "control dc1"
ENCODING 17
SWIDTH 1041 0
DWIDTH 6 12
BBX 6 12 0 0
BITMAP
0000
0000
0000
0000
0000
0380
0480
0480
0480
0480
0480
0400
ENDCHAR
STARTCHAR "control dc2"
ENCODING 18
SWIDTH 1041 0
DWIDTH 6 12
BBX 6 12 0 0
BITMAP
0000
0000
0000
0000
0000
0380
0400
0400
0400
0480
0480
0480
ENDCHAR
STARTCHAR "control dc3"
ENCODING 19
SWIDTH 1041 0
DWIDTH 6 12
BBX 6 12 0 0
BITMAP
0000
0000
0000
0000
0000
0380
0400
0400
0400
0780
0780
0480
ENDCHAR
STARTCHAR "control dc4"
ENCODING 20
SWIDTH 1041 0
DWIDTH 6 12
BBX 6 12 0 0
BITMAP
0000
0000
0000
0000
0000
0380
0480
0480
0480
0780
0780
0400
ENDCHAR
STARTCHAR "control nak"
ENCODING 21
SWIDTH 1041 0
DWIDTH 6 12
BBX 6 12 0 0
BITMAP
0000
0000
0000
0000
0000
0000
0080
0080
0000
0480
0480
0700
ENDCHAR
STARTCHAR "control syn"
ENCODING 22
SWIDTH 1041 0
DWIDTH 6 12
BBX 6 12 0 0
BITMAP
0000
0000
0000
0000
0000
0380
0300
0300
0300
0300
0300
0300
ENDCHAR
STARTCHAR "control etb"
ENCODING 23
SWIDTH 1041 0
DWIDTH 6 12
BBX 6 12 0 0
BITMAP
0000
0000
0000
0000
0000
0000
0000
0000
0000
0780
0780
0000
ENDCHAR
STARTCHAR "control can"
ENCODING 24
SWIDTH 1041 0
DWIDTH 6 12
BBX 6 12 0 0
BITMAP
0000
0000
0000
0000
0000
0780
0400
0400
0300
0080
0080
0300
ENDCHAR
STARTCHAR "control em"
ENCODING 25
SWIDTH 1041 0
DWIDTH 6 12
BBX 6 12 0 0
BITMAP
0000
0000
0000
0000
0000
0080
0080
0080
0380
0380
0380
0080
ENDCHAR
STARTCHAR "control sub"
ENCODING 26
SWIDTH 1041 0
DWIDTH 6 12
BBX 6 12 0 0
BITMAP
0000
0000
0000
0000
0000
0380
0400
0400
0400
0300
0300
0080
ENDCHAR
STARTCHAR "control esc"
ENCODING 27
SWIDTH 1041 0
DWIDTH 6 12
BBX 6 12 0 0
BITMAP
0000
0000
0000
0000
0000
0380
0400
0400
0400
0780
0780
0400
ENDCHAR
STARTCHAR "control fs"
ENCODING 28
SWIDTH 1041 0
DWIDTH 6 12
BBX 6 12 0 0
BITMAP
0000
0000
0000
0000
0000
0780
0480
0480
0480
0780
0780
0400
ENDCHAR
STARTCHAR "control gs"
ENCODING 29
SWIDTH 1041 0
DWIDTH 6 12
BBX 6 12 0 0
BITMAP
0000
0000
0000
0000
0000
0780
0400
0400
0400
0780
0780
0480
ENDCHAR
STARTCHAR "control rs"
ENCODING 30
SWIDTH 1041 0
DWIDTH 6 12
BBX 6 12 0 0
BITMAP
0000
0000
0000
0000
0000
0780
0400
0400
0400
0480
0480
0480
ENDCHAR
STARTCHAR "control us"
ENCODING 31
SWIDTH 1041 0
DWIDTH 6 12
BBX 6 12 0 0
BITMAP
0000
0000
0000
0000
0000
0780
0480
0480
0480
0480
0480
0400
ENDCHAR
STARTCHAR "space"
ENCODING 32
SWIDTH 1041 0
DWIDTH 6 12
BBX 6 12 0 0
BITMAP
0000
0000
0000
0000
0000
0000
0000
0000
0000
0000
0000
0000
ENDCHAR
STARTCHAR "exclamation mark"
ENCODING 33
SWIDTH 1041 0
DWIDTH 6 12
BBX 6 12 0 0
BITMAP
0000
0000
0000
0000
0000
0080
0080
0080
0080
0080
0080
0080
ENDCHAR
STARTCHAR "quotation mark"
ENCODING 34
SWIDTH 1041 0
DWIDTH 6 12
BBX 6 12 0 0
BITMAP
0000
0000
0000
0000
0000
0300
0300
0300
0300
0000
0000
0000
ENDCHAR
STARTCHAR "number sign"
ENCODING 35
SWIDTH 1041 0
DWIDTH 6 12
BBX 6 12 0 0
BITMAP
0000
0000
0000
0000
0000
0300
0300
0300
0780
0300
0300
0780
ENDCHAR
STARTCHAR "dollar sign"
ENCODING 36
SWIDTH 1041 0
DWIDTH 6 12
BBX 6 12 0 0
BITMAP
0000
0000
0000
0000
0000
0080
0380
0380
0480
0380
0380
0080
ENDCHAR
STARTCHAR "percent sign"
ENCODING 37
SWIDTH 1041 0
DWIDTH 6 12
BBX 6 12 0 0
BITMAP
0000
0000
0000
0000
0000
0700
0700
0700
0000
0080
0080
0300
ENDCHAR
STARTCHAR "ampersand"
ENCODING 38
SWIDTH 1041 0
DWIDTH 6 12
BBX 6 12 0 0
BITMAP
0000
0000
0000
0000
0000
0300
0480
0480
0480
0300
0300
0480
ENDCHAR
STARTCHAR "apostrophe"
ENCODING 39
SWIDTH 1041 0
DWIDTH 6 12
BBX 6 12 0 0
BITMAP
0000
0000
0000
0000
0000
0380
0380
0380
0300
0400
0400
0000
ENDCHAR
STARTCHAR "left parenthesis"
ENCODING 40
SWIDTH 1041 0
DWIDTH 6 12
BBX 6 12 0 0
BITMAP
0000
0000
0000
0000
0000
0000
0080
0080
0300
0300
0300
0300
ENDCHAR
STARTCHAR "right parenthesis"
ENCODING 41
SWIDTH 1041 0
DWIDTH 6 12
BBX 6 12 0 0
BITMAP
0000
0000
0000
0000
0000
0300
0080
0080
0000
0000
0000
0000
ENDCHAR
STARTCHAR "asterisk"
ENCODING 42
SWIDTH 1041 0
DWIDTH 6 12
BBX 6 12 0 0
BITMAP
0000
0000
0000
0000
0000
0080
0480
0480
0380
0780
0780
0380
ENDCHAR
STARTCHAR "plus sign"
ENCODING 43
SWIDTH 1041 0
DWIDTH 6 12
BBX 6 12 0 0
BITMAP
0000
0000
0000
0000
0000
0000
0080
0080
0080
0780
0780
0080
ENDCHAR
STARTCHAR "comma"
ENCODING 44
SWIDTH 1041 0
DWIDTH 6 12
BBX 6 12 0 0
BITMAP
0000
0000
0000
0000
0000
0000
0000
0000
0000
0000
0000
0000
ENDCHAR
STARTCHAR "hypen minus"
ENCODING 45
SWIDTH 1041 0
DWIDTH 6 12
BBX 6 12 0 0
BITMAP
0000
0000
0000
0000
0000
0000
0000
0000
0000
0780
0780
0000
ENDCHAR
STARTCHAR "full stop"
ENCODING 46
SWIDTH 1041 0
DWIDTH 6 12
BBX 6 12 0 0
BITMAP
0000
0000
0000
0000
0000
0000
0000
0000
0000
0000
0000
0000
ENDCHAR
STARTCHAR "solidus"
ENCODING 47
SWIDTH 1041 0
DWIDTH 6 12
BBX 6 12 0 0
BITMAP
0000
0000
0000
0000
0000
0000
0000
0000
0000
0080
0080
0300
ENDCHAR
STARTCHAR "digit zero"
ENCODING 48
SWIDTH 1041 0
DWIDTH 6 12
BBX 6 12 0 0
BITMAP
0000
0000
0000
0000
0000
0380
0400
0400
0400
0480
0480
0700
ENDCHAR
STARTCHAR "digit one"
ENCODING 49
SWIDTH 1041 0
DWIDTH 6 12
BBX 6 12 0 0
BITMAP
0000
0000
0000
0000
0000
0080
0380
0380
0080
0080
0080
0080
ENDCHAR
STARTCHAR "digit two"
ENCODING 50
SWIDTH 1041 0
DWIDTH 6 12
BBX 6 12 0 0
BITMAP
0000
0000
0000
0000
0000
0380
0400
0400
0000
0380
0380
0400
ENDCHAR
STARTCHAR "digit three"
ENCODING 51
SWIDTH 1041 0
DWIDTH 6 12
BBX 6 12 0 0
BITMAP
0000
0000
0000
0000
0000
0380
0400
0400
0000
0080
0080
0000
ENDCHAR
STARTCHAR "digit four"
ENCODING 52
SWIDTH 1041 0
DWIDTH 6 12
BBX 6 12 0 0
BITMAP
0000
0000
0000
0000
0000
0000
0080
0080
0300
0400
0400
0780
ENDCHAR
STARTCHAR "digit five"
ENCODING 53
SWIDTH 1041 0
DWIDTH 6 12
BBX 6 12 0 0
BITMAP
0000
0000
0000
0000
0000
0780
0400
0400
0780
0000
0000
0000
ENDCHAR
STARTCHAR "digit six"
ENCODING 54
SWIDTH 1041 0
DWIDTH 6 12
BBX 6 12 0 0
BITMAP
0000
0000
0000
0000
0000
0080
0300
0300
0400
0780
0780
0400
ENDCHAR
STARTCHAR "digit seven"
ENCODING 55
SWIDTH 1041 0
DWIDTH 6 12
BBX 6 12 0 0
BITMAP
0000
0000
0000
0000
0000
0780
0000
0000
0000
0080
0080
0300
ENDCHAR
STARTCHAR "digit eight"
ENCODING 56
SWIDTH 1041 0
DWIDTH 6 12
BBX 6 12 0 0
BITMAP
0000
0000
0000
0000
0000
0380
0400
0400
0400
0380
0380
0400
ENDCHAR
STARTCHAR "digit nine"
ENCODING 57
SWIDTH 1041 0
DWIDTH 6 12
BBX 6 12 0 0
BITMAP
0000
0000
0000
0000
0000
0380
0400
0400
0400
0380
0380
0000
ENDCHAR
STARTCHAR "colon"
ENCODING 58
SWIDTH 1041 0
DWIDTH 6 12
BBX 6 12 0 0
BITMAP
0000
0000
0000
0000
0000
0000
0380
0380
0380
0000
0000
0380
ENDCHAR
STARTCHAR "semicolon"
ENCODING 59
SWIDTH 1041 0
DWIDTH 6 12
BBX 6 12 0 0
BITMAP
0000
0000
0000
0000
0000
0000
0000
0000
0380
0380
0380
0000
ENDCHAR
STARTCHAR "less-than sign"
ENCODING 60
SWIDTH 1041 0
DWIDTH 6 12
BBX 6 12 0 0
BITMAP
0000
0000
0000
0000
0000
0000
0080
0080
0300
0400
0400
0300
ENDCHAR
STARTCHAR "equals sign"
ENCODING 61
SWIDTH 1041 0
DWIDTH 6 12
BBX 6 12 0 0
BITMAP
0000
0000
0000
0000
0000
0000
0000
0000
0780
0000
0000
0780
ENDCHAR
STARTCHAR "greater-than sign"
ENCODING 62
SWIDTH 1041 0
DWIDTH 6 12
BBX 6 12 0 0
BITMAP
0000
0000
0000
0000
0000
0300
0080
0080
0000
0000
0000
0000
ENDCHAR
STARTCHAR "question mark"
ENCODING 63
SWIDTH 1041 0
DWIDTH 6 12
BBX 6 12 0 0
BITMAP
0000
0000
0000
0000
0000
0380
0400
0400
0000
0000
0000
0080
ENDCHAR
STARTCHAR "commercial at"
ENCODING 64
SWIDTH 1041 0
DWIDTH 6 12
BBX 6 12 0 0
BITMAP
0000
0000
0000
0000
0000
0380
0400
0400
0000
0380
0380
0480
ENDCHAR
STARTCHAR "latin capital letter a"
ENCODING 65
SWIDTH 1041 0
DWIDTH 6 12
BBX 6 12 0 0
BITMAP
0000
0000
0000
0000
0000
0080
0300
0300
0400
0400
0400
0780
ENDCHAR
STARTCHAR "latin capital letter b"
ENCODING 66
SWIDTH 1041 0
DWIDTH 6 12
BBX 6 12 0 0
BITMAP
0000
0000
0000
0000
0000
0780
0300
0300
0300
0380
0380
0300
ENDCHAR
STARTCHAR "latin capital letter c"
ENCODING 67
SWIDTH 1041 0
DWIDTH 6 12
BBX 6 12 0 0
BITMAP
0000
0000
0000
0000
0000
0380
0400
0400
0400
0400
0400
0400
ENDCHAR
STARTCHAR "latin capital letter d"
ENCODING 68
SWIDTH 1041 0
DWIDTH 6 12
BBX 6 12 0 0
BITMAP
0000
0000
0000
0000
0000
0780
0300
0300
0300
0300
0300
0300
ENDCHAR
STARTCHAR "latin capital letter e"
ENCODING 69
SWIDTH 1041 0
DWIDTH 6 12
BBX 6 12 0 0
BITMAP
0000
0000
0000
0000
0000
0780
0400
0400
0400
0780
0780
0400
ENDCHAR
STARTCHAR "latin capital letter f"
ENCODING 70
SWIDTH 1041 0
DWIDTH 6 12
BBX 6 12 0 0
BITMAP
0000
0000
0000
0000
0000
0780
0400
0400
0400
0780
0780
0400
ENDCHAR
STARTCHAR "latin capital letter g"
ENCODING 71
SWIDTH 1041 0
DWIDTH 6 12
BBX 6 12 0 0
BITMAP
0000
0000
0000
0000
0000
0380
0400
0400
0400
0400
0400
0400
ENDCHAR
STARTCHAR "latin capital letter h"
ENCODING 72
SWIDTH 1041 0
DWIDTH 6 12
BBX 6 12 0 0
BITMAP
0000
0000
0000
0000
0000
0400
0400
0400
0400
0780
0780
0400
ENDCHAR
STARTCHAR "latin capital letter i"
ENCODING 73
SWIDTH 1041 0
DWIDTH 6 12
BBX 6 12 0 0
BITMAP
0000
0000
0000
0000
0000
0380
0080
0080
0080
0080
0080
0080
ENDCHAR
STARTCHAR "latin capital letter j"
ENCODING 74
SWIDTH 1041 0
DWIDTH 6 12
BBX 6 12 0 0
BITMAP
0000
0000
0000
0000
0000
0000
0000
0000
0000
0000
0000
0000
ENDCHAR
STARTCHAR "latin capital letter k"
ENCODING 75
SWIDTH 1041 0
DWIDTH 6 12
BBX 6 12 0 0
BITMAP
0000
0000
0000
0000
0000
0400
0400
0400
0480
0700
0700
0480
ENDCHAR
STARTCHAR "latin capital letter l"
ENCODING 76
SWIDTH 1041 0
DWIDTH 6 12
BBX 6 12 0 0
BITMAP
0000
0000
0000
0000
0000
0400
0400
0400
0400
0400
0400
0400
ENDCHAR
STARTCHAR "latin capital letter m"
ENCODING 77
SWIDTH 1041 0
DWIDTH 6 12
BBX 6 12 0 0
BITMAP
0000
0000
0000
0000
0000
0400
0700
0700
0480
0480
0480
0400
ENDCHAR
STARTCHAR "latin capital letter n"
ENCODING 78
SWIDTH 1041 0
DWIDTH 6 12
BBX 6 12 0 0
BITMAP
0000
0000
0000
0000
0000
0400
0700
0700
0480
0400
0400
0400
ENDCHAR
STARTCHAR "latin capital letter o"
ENCODING 79
SWIDTH 1041 0
DWIDTH 6 12
BBX 6 12 0 0
BITMAP
0000
0000
0000
0000
0000
0380
0400
0400
0400
0400
0400
0400
ENDCHAR
STARTCHAR "latin capital letter p"
ENCODING 80
SWIDTH 1041 0
DWIDTH 6 12
BBX 6 12 0 0
BITMAP
0000
0000
0000
0000
0000
0780
0400
0400
0400
0780
0780
0400
ENDCHAR
STARTCHAR "latin capital letter q"
ENCODING 81
SWIDTH 1041 0
DWIDTH 6 12
BBX 6 12 0 0
BITMAP
0000
0000
0000
0000
0000
0380
0400
0400
0400
0400
0400
0480
ENDCHAR
STARTCHAR "latin capital letter r"
ENCODING 82
SWIDTH 1041 0
DWIDTH 6 12
BBX 6 12 0 0
BITMAP
0000
0000
0000
0000
0000
0780
0400
0400
0400
0780
0780
0480
ENDCHAR
STARTCHAR "latin capital letter s"
ENCODING 83
SWIDTH 1041 0
DWIDTH 6 12
BBX 6 12 0 0
BITMAP
0000
0000
0000
0000
0000
0380
0400
0400
0400
0380
0380
0000
ENDCHAR
STARTCHAR "latin capital letter t"
ENCODING 84
SWIDTH 1041 0
DWIDTH 6 12
BBX 6 12 0 0
BITMAP
0000
0000
0000
0000
0000
0780
0080
0080
0080
0080
0080
0080
ENDCHAR
STARTCHAR "latin capital letter u"
ENCODING 85
SWIDTH 1041 0
DWIDTH 6 12
BBX 6 12 0 0
BITMAP
0000
0000
0000
0000
0000
0400
0400
0400
0400
0400
0400
0400
ENDCHAR
STARTCHAR "latin capital letter v"
ENCODING 86
SWIDTH 1041 0
DWIDTH 6 12
BBX 6 12 0 0
BITMAP
0000
0000
0000
0000
0000
0400
0400
0400
0400
0300
0300
0300
ENDCHAR
STARTCHAR "latin capital letter w"
ENCODING 87
SWIDTH 1041 0
DWIDTH 6 12
BBX 6 12 0 0
BITMAP
0000
0000
0000
0000
0000
0400
0400
0400
0400
0400
0400
0480
ENDCHAR
STARTCHAR "latin capital letter x"
ENCODING 88
SWIDTH 1041 0
DWIDTH 6 12
BBX 6 12 0 0
BITMAP
0000
0000
0000
0000
0000
0400
0400
0400
0300
0080
0080
0300
ENDCHAR
STARTCHAR "latin capital letter y"
ENCODING 89
SWIDTH 1041 0
DWIDTH 6 12
BBX 6 12 0 0
BITMAP
0000
0000
0000
0000
0000
0400
0400
0400
0300
0080
0080
0080
ENDCHAR
STARTCHAR "latin capital letter z"
ENCODING 90
SWIDTH 1041 0
DWIDTH 6 12
BBX 6 12 0 0
BITMAP
0000
0000
0000
0000
0000
0780
0000
0000
0000
0080
0080
0300
ENDCHAR
STARTCHAR "left square bracket"
ENCODING 91
SWIDTH 1041 0
DWIDTH 6 12
BBX 6 12 0 0
BITMAP
0000
0000
0000
0000
0000
0080
0380
0380
0480
0080
0080
0080
ENDCHAR
STARTCHAR "reverse solidus"
ENCODING 92
SWIDTH 1041 0
DWIDTH 6 12
BBX 6 12 0 0
BITMAP
0000
0000
0000
0000
0000
0080
0080
0080
0080
0080
0080
0480
ENDCHAR
STARTCHAR "right square bracket"
ENCODING 93
SWIDTH 1041 0
DWIDTH 6 12
BBX 6 12 0 0
BITMAP
0000
0000
0000
0000
0000
0000
0080
0080
0300
0780
0780
0300
ENDCHAR
STARTCHAR "circumflex accent"
ENCODING 94
SWIDTH 1041 0
DWIDTH 6 12
BBX 6 12 0 0
BITMAP
0000
0000
0000
0000
0000
0000
0080
0080
0000
0780
0780
0000
ENDCHAR
STARTCHAR "low line"
ENCODING 95
SWIDTH 1041 0
DWIDTH 6 12
BBX 6 12 0 0
BITMAP
0000
0000
0000
0000
0000
0000
0000
0000
0000
0000
0000
0000
ENDCHAR
STARTCHAR "grave accent"
ENCODING 96
SWIDTH 1041 0
DWIDTH 6 12
BBX 6 12 0 0
BITMAP
0000
0000
0000
0000
0000
0080
0080
0080
0080
0000
0000
0000
ENDCHAR
STARTCHAR "latin small letter a"
ENCODING 97
SWIDTH 1041 0
DWIDTH 6 12
BBX 6 12 0 0
BITMAP
0000
0000
0000
0000
0000
0000
0000
0000
0380
0000
0000
0380
ENDCHAR
STARTCHAR "latin small letter b"
ENCODING 98
SWIDTH 1041 0
DWIDTH 6 12
BBX 6 12 0 0
BITMAP
0000
0000
0000
0000
0000
0400
0400
0400
0480
0700
0700
0400
ENDCHAR
STARTCHAR "latin small letter c"
ENCODING 99
SWIDTH 1041 0
DWIDTH 6 12
BBX 6 12 0 0
BITMAP
0000
0000
0000
0000
0000
0000
0000
0000
0380
0400
0400
0400
ENDCHAR
STARTCHAR "latin small letter d"
ENCODING 100
SWIDTH 1041 0
DWIDTH 6 12
BBX 6 12 0 0
BITMAP
0000
0000
0000
0000
0000
0000
0000
0000
0380
0400
0400
0400
ENDCHAR
STARTCHAR "latin small letter e"
ENCODING 101
SWIDTH 1041 0
DWIDTH 6 12
BBX 6 12 0 0
BITMAP
0000
0000
0000
0000
0000
0000
0000
0000
0380
0400
0400
0780
ENDCHAR
STARTCHAR "latin small letter f"
ENCODING 102
SWIDTH 1041 0
DWIDTH 6 12
BBX 6 12 0 0
BITMAP
0000
0000
0000
0000
0000
0000
0080
0080
0080
0380
0380
0080
ENDCHAR
STARTCHAR "latin small letter g"
ENCODING 103
SWIDTH 1041 0
DWIDTH 6 12
BBX 6 12 0 0
BITMAP
0000
0000
0000
0000
0000
0000
0000
0000
0380
0400
0400
0400
ENDCHAR
STARTCHAR "latin small letter h"
ENCODING 104
SWIDTH 1041 0
DWIDTH 6 12
BBX 6 12 0 0
BITMAP
0000
0000
0000
0000
0000
0400
0400
0400
0480
0700
0700
0400
ENDCHAR
STARTCHAR "latin small letter i"
ENCODING 105
SWIDTH 1041 0
DWIDTH 6 12
BBX 6 12 0 0
BITMAP
0000
0000
0000
0000
0000
0080
0000
0000
0380
0080
0080
0080
ENDCHAR
STARTCHAR "latin small letter j"
ENCODING 106
SWIDTH 1041 0
DWIDTH 6 12
BBX 6 12 0 0
BITMAP
0000
0000
0000
0000
0000
0000
0000
0000
0000
0000
0000
0000
ENDCHAR
STARTCHAR "latin small letter k"
ENCODING 107
SWIDTH 1041 0
DWIDTH 6 12
BBX 6 12 0 0
BITMAP
0000
0000
0000
0000
0000
0400
0400
0400
0400
0480
0480
0700
ENDCHAR
STARTCHAR "latin small letter l"
ENCODING 108
SWIDTH 1041 0
DWIDTH 6 12
BBX 6 12 0 0
BITMAP
0000
0000
0000
0000
0000
0380
0080
0080
0080
0080
0080
0080
ENDCHAR
STARTCHAR "latin small letter m"
ENCODING 109
SWIDTH 1041 0
DWIDTH 6 12
BBX 6 12 0 0
BITMAP
0000
0000
0000
0000
0000
0000
0000
0000
0700
0480
0480
0480
ENDCHAR
STARTCHAR "latin small letter n"
ENCODING 110
SWIDTH 1041 0
DWIDTH 6 12
BBX 6 12 0 0
BITMAP
0000
0000
0000
0000
0000
0000
0000
0000
0480
0700
0700
0400
ENDCHAR
STARTCHAR "latin small letter o"
ENCODING 111
SWIDTH 1041 0
DWIDTH 6 12
BBX 6 12 0 0
BITMAP
0000
0000
0000
0000
0000
0000
0000
0000
0380
0400
0400
0400
ENDCHAR
STARTCHAR "latin small letter p"
ENCODING 112
SWIDTH 1041 0
DWIDTH 6 12
BBX 6 12 0 0
BITMAP
0000
0000
0000
0000
0000
0000
0000
0000
0480
0700
0700
0400
ENDCHAR
STARTCHAR "latin small letter q"
ENCODING 113
SWIDTH 1041 0
DWIDTH 6 12
BBX 6 12 0 0
BITMAP
0000
0000
0000
0000
0000
0000
0000
0000
0380
0400
0400
0400
ENDCHAR
STARTCHAR "latin small letter r"
ENCODING 114
SWIDTH 1041 0
DWIDTH 6 12
BBX 6 12 0 0
BITMAP
0000
0000
0000
0000
0000
0000
0000
0000
0480
0700
0700
0400
ENDCHAR
STARTCHAR "latin small letter s"
ENCODING 115
SWIDTH 1041 0
DWIDTH 6 12
BBX 6 12 0 0
BITMAP
0000
0000
0000
0000
0000
0000
0000
0000
0380
0400
0400
0380
ENDCHAR
STARTCHAR "latin small letter t"
ENCODING 116
SWIDTH 1041 0
DWIDTH 6 12
BBX 6 12 0 0
BITMAP
0000
0000
0000
0000
0000
0080
0080
0080
0780
0080
0080
0080
ENDCHAR
STARTCHAR "latin small letter u"
ENCODING 117
SWIDTH 1041 0
DWIDTH 6 12
BBX 6 12 0 0
BITMAP
0000
0000
0000
0000
0000
0000
0000
0000
0400
0400
0400
0400
ENDCHAR
STARTCHAR "latin small letter v"
ENCODING 118
SWIDTH 1041 0
DWIDTH 6 12
BBX 6 12 0 0
BITMAP
0000
0000
0000
0000
0000
0000
0000
0000
0400
0400
0400
0400
ENDCHAR
STARTCHAR "latin small letter w"
ENCODING 119
SWIDTH 1041 0
DWIDTH 6 12
BBX 6 12 0 0
BITMAP
0000
0000
0000
0000
0000
0000
0000
0000
0400
0400
0400
0480
ENDCHAR
STARTCHAR "latin small letter x"
ENCODING 120
SWIDTH 1041 0
DWIDTH 6 12
BBX 6 12 0 0
BITMAP
0000
0000
0000
0000
0000
0000
0000
0000
0400
0300
0300
0080
ENDCHAR
STARTCHAR "latin small letter y"
ENCODING 121
SWIDTH 1041 0
DWIDTH 6 12
BBX 6 12 0 0
BITMAP
0000
0000
0000
0000
0000
0000
0000
0000
0400
0400
0400
0400
ENDCHAR
STARTCHAR "latin small letter z"
ENCODING 122
SWIDTH 1041 0
DWIDTH 6 12
BBX 6 12 0 0
BITMAP
0000
0000
0000
0000
0000
0000
0000
0000
0780
0000
0000
0080
ENDCHAR
STARTCHAR "left curly bracket"
ENCODING 123
SWIDTH 1041 0
DWIDTH 6 12
BBX 6 12 0 0
BITMAP
0000
0000
0000
0000
0000
0000
0080
0080
0080
0300
0300
0080
ENDCHAR
STARTCHAR "vertical line"
ENCODING 124
SWIDTH 1041 0
DWIDTH 6 12
BBX 6 12 0 0
BITMAP
0000
0000
0000
0000
0000
0080
0080
0080
0080
0000
0000
0080
ENDCHAR
STARTCHAR "right curly bracket"
ENCODING 125
SWIDTH 1041 0
DWIDTH 6 12
BBX 6 12 0 0
BITMAP
0000
0000
0000
0000
0000
0300
0080
0080
0080
0000
0000
0080
ENDCHAR
STARTCHAR "tilde"
ENCODING 126
SWIDTH 1041 0
DWIDTH 6 12
BBX 6 12 0 0
BITMAP
0000
0000
0000
0000
0000
0300
0480
0480
0000
0000
0000
0000
ENDCHAR
STARTCHAR "delete"
ENCODING 127
SWIDTH 1041 0
DWIDTH 6 12
BBX 6 12 0 0
BITMAP
0000
0000
0000
0000
0000
0300
0480
0480
0300
0480
0480
0300
ENDCHAR
STARTCHAR "U+e080"
ENCODING 128
SWIDTH 1041 0
DWIDTH 6 12
BBX 6 12 0 0
BITMAP
0000
0000
0000
0000
0000
0000
0000
0000
0000
0000
0000
0000
ENDCHAR
STARTCHAR "U+e081"
ENCODING 129
SWIDTH 1041 0
DWIDTH 6 12
BBX 6 12 0 0
BITMAP
1F00
1F00
1F00
1F00
1F00
1F00
0000
0000
0000
0000
0000
0000
ENDCHAR
STARTCHAR "U+e082"
ENCODING 130
SWIDTH 1041 0
DWIDTH 6 12
BBX 6 12 0 0
BITMAP
0080
0080
0080
0080
0080
0080
0000
0000
0000
0000
0000
0000
ENDCHAR
STARTCHAR "U+e083"
ENCODING 131
SWIDTH 1041 0
DWIDTH 6 12
BBX 6 12 0 0
BITMAP
1F80
1F80
1F80
1F80
1F80
1F80
0000
0000
0000
0000
0000
0000
ENDCHAR
STARTCHAR "U+e084"
ENCODING 132
SWIDTH 1041 0
DWIDTH 6 12
BBX 6 12 0 0
BITMAP
0000
0000
0000
0000
0000
0000
1F00
1F00
1F00
1F00
1F00
1F00
ENDCHAR
STARTCHAR "U+e085"
ENCODING 133
SWIDTH 1041 0
DWIDTH 6 12
BBX 6 12 0 0
BITMAP
1F00
1F00
1F00
1F00
1F00
1F00
1F00
1F00
1F00
1F00
1F00
1F00
ENDCHAR
STARTCHAR "U+e086"
ENCODING 134
SWIDTH 1041 0
DWIDTH 6 12
BBX 6 12 0 0
BITMAP
0080
0080
0080
0080
0080
0080
1F00
1F00
1F00
1F00
1F00
1F00
ENDCHAR
STARTCHAR "U+e087"
ENCODING 135
SWIDTH 1041 0
DWIDTH 6 12
BBX 6 12 0 0
BITMAP
1F80
1F80
1F80
1F80
1F80
1F80
1F00
1F00
1F00
1F00
1F00
1F00
ENDCHAR
STARTCHAR "U+e088"
ENCODING 136
SWIDTH 1041 0
DWIDTH 6 12
BBX 6 12 0 0
BITMAP
0000
0000
0000
0000
0000
0000
0080
0080
0080
0080
0080
0080
ENDCHAR
STARTCHAR "U+e089"
ENCODING 137
SWIDTH 1041 0
DWIDTH 6 12
BBX 6 12 0 0
BITMAP
1F00
1F00
1F00
1F00
1F00
1F00
0080
0080
0080
0080
0080
0080
ENDCHAR
STARTCHAR "U+e08a"
ENCODING 138
SWIDTH 1041 0
DWIDTH 6 12
BBX 6 12 0 0
BITMAP
0080
0080
0080
0080
0080
0080
0080
0080
0080
0080
0080
0080
ENDCHAR
STARTCHAR "U+e08b"
ENCODING 139
SWIDTH 1041 0
DWIDTH 6 12
BBX 6 12 0 0
BITMAP
1F80
1F80
1F80
1F80
1F80
1F80
0080
0080
0080
0080
0080
0080
ENDCHAR
STARTCHAR "U+e08c"
ENCODING 140
SWIDTH 1041 0
DWIDTH 6 12
BBX 6 12 0 0
BITMAP
0000
0000
0000
0000
0000
0000
1F80
1F80
1F80
1F80
1F80
1F80
ENDCHAR
STARTCHAR "U+e08d"
ENCODING 141
SWIDTH 1041 0
DWIDTH 6 12
BBX 6 12 0 0
BITMAP
1F00
1F00
1F00
1F00
1F00
1F00
1F80
1F80
1F80
1F80
1F80
1F80
ENDCHAR
STARTCHAR "U+e08e"
ENCODING 142
SWIDTH 1041 0
DWIDTH 6 12
BBX 6 12 0 0
BITMAP
0080
0080
0080
0080
0080
0080
1F80
1F80
1F80
1F80
1F80
1F80
ENDCHAR
STARTCHAR "U+e08f"
ENCODING 143
SWIDTH 1041 0
DWIDTH 6 12
BBX 6 12 0 0
BITMAP
1F80
1F80
1F80
1F80
1F80
1F80
1F80
1F80
1F80
1F80
1F80
1F80
ENDCHAR
STARTCHAR "U+e090"
ENCODING 144
SWIDTH 1041 0
DWIDTH 6 12
BBX 6 12 0 0
BITMAP
0000
0000
0000
0000
0000
0000
0000
0000
0000
0000
0000
0000
ENDCHAR
STARTCHAR "U+e091"
ENCODING 145
SWIDTH 1041 0
DWIDTH 6 12
BBX 6 12 0 0
BITMAP
1F00
1F00
1F00
1F00
1F00
1F00
0000
0000
0000
0000
0000
0000
ENDCHAR
STARTCHAR "U+e092"
ENCODING 146
SWIDTH 1041 0
DWIDTH 6 12
BBX 6 12 0 0
BITMAP
0080
0080
0080
0080
0080
0080
0000
0000
0000
0000
0000
0000
ENDCHAR
STARTCHAR "U+e093"
ENCODING 147
SWIDTH 1041 0
DWIDTH 6 12
BBX 6 12 0 0
BITMAP
1F80
1F80
1F80
1F80
1F80
1F80
0000
0000
0000
0000
0000
0000
ENDCHAR
STARTCHAR "U+e094"
ENCODING 148
SWIDTH 1041 0
DWIDTH 6 12
BBX 6 12 0 0
BITMAP
0000
0000
0000
0000
0000
0000
1F00
1F00
1F00
1F00
1F00
1F00
ENDCHAR
STARTCHAR "U+e095"
ENCODING 149
SWIDTH 1041 0
DWIDTH 6 12
BBX 6 12 0 0
BITMAP
1F00
1F00
1F00
1F00
1F00
1F00
1F00
1F00
1F00
1F00
1F00
1F00
ENDCHAR
STARTCHAR "U+e096"
ENCODING 150
SWIDTH 1041 0
DWIDTH 6 12
BBX 6 12 0 0
BITMAP
0080
0080
0080
0080
0080
0080
1F00
1F00
1F00
1F00
1F00
1F00
ENDCHAR
STARTCHAR "U+e097"
ENCODING 151
SWIDTH 1041 0
DWIDTH 6 12
BBX 6 12 0 0
BITMAP
1F80
1F80
1F80
1F80
1F80
1F80
1F00
1F00
1F00
1F00
1F00
1F00
ENDCHAR
STARTCHAR "U+e098"
ENCODING 152
SWIDTH 1041 0
DWIDTH 6 12
BBX 6 12 0 0
BITMAP
0000
0000
0000
0000
0000
0000
0080
0080
0080
0080
0080
0080
ENDCHAR
STARTCHAR "U+e099"
ENCODING 153
SWIDTH 1041 0
DWIDTH 6 12
BBX 6 12 0 0
BITMAP
1F00
1F00
1F00
1F00
1F00
1F00
0080
0080
0080
0080
0080
0080
ENDCHAR
STARTCHAR "U+e09a"
ENCODING 154
SWIDTH 1041 0
DWIDTH 6 12
BBX 6 12 0 0
BITMAP
0080
0080
0080
0080
0080
0080
0080
0080
0080
0080
0080
0080
ENDCHAR
STARTCHAR "U+e09b"
ENCODING 155
SWIDTH 1041 0
DWIDTH 6 12
BBX 6 12 0 0
BITMAP
1F80
1F80
1F80
1F80
1F80
1F80
0080
0080
0080
0080
0080
0080
ENDCHAR
STARTCHAR "U+e09c"
ENCODING 156
SWIDTH 1041 0
DWIDTH 6 12
BBX 6 12 0 0
BITMAP
0000
0000
0000
0000
0000
0000
1F80
1F80
1F80
1F80
1F80
1F80
ENDCHAR
STARTCHAR "U+e09d"
ENCODING 157
SWIDTH 1041 0
DWIDTH 6 12
BBX 6 12 0 0
BITMAP
1F00
1F00
1F00
1F00
1F00
1F00
1F80
1F80
1F80
1F80
1F80
1F80
ENDCHAR
STARTCHAR "U+e09e"
ENCODING 158
SWIDTH 1041 0
DWIDTH 6 12
BBX 6 12 0 0
BITMAP
0080
0080
0080
0080
0080
0080
1F80
1F80
1F80
1F80
1F80
1F80
ENDCHAR
STARTCHAR "U+e09f"
ENCODING 159
SWIDTH 1041 0
DWIDTH 6 12
BBX 6 12 0 0
BITMAP
1F80
1F80
1F80
1F80
1F80
1F80
1F80
1F80
1F80
1F80
1F80
1F80
ENDCHAR
STARTCHAR "U+e0a0"
ENCODING 160
SWIDTH 1041 0
DWIDTH 6 12
BBX 6 12 0 0
BITMAP
0000
0000
0000
0000
0000
0000
0000
0000
0000
0000
0000
0000
ENDCHAR
STARTCHAR "U+e0a1"
ENCODING 161
SWIDTH 1041 0
DWIDTH 6 12
BBX 6 12 0 0
BITMAP
1F00
1F00
1F00
1F00
1F00
1F00
0000
0000
0000
0000
0000
0000
ENDCHAR
STARTCHAR "U+e0a2"
ENCODING 162
SWIDTH 1041 0
DWIDTH 6 12
BBX 6 12 0 0
BITMAP
0080
0080
0080
0080
0080
0080
0000
0000
0000
0000
0000
0000
ENDCHAR
STARTCHAR "U+e0a3"
ENCODING 163
SWIDTH 1041 0
DWIDTH 6 12
BBX 6 12 0 0
BITMAP
1F80
1F80
1F80
1F80
1F80
1F80
0000
0000
0000
0000
0000
0000
ENDCHAR
STARTCHAR "U+e0a4"
ENCODING 164
SWIDTH 1041 0
DWIDTH 6 12
BBX 6 12 0 0
BITMAP
0000
0000
0000
0000
0000
0000
1F00
1F00
1F00
1F00
1F00
1F00
ENDCHAR
STARTCHAR "U+e0a5"
ENCODING 165
SWIDTH 1041 0
DWIDTH 6 12
BBX 6 12 0 0
BITMAP
1F00
1F00
1F00
1F00
1F00
1F00
1F00
1F00
1F00
1F00
1F00
1F00
ENDCHAR
STARTCHAR "U+e0a6"
ENCODING 166
SWIDTH 1041 0
DWIDTH 6 12
BBX 6 12 0 0
BITMAP
0080
0080
0080
0080
0080
0080
1F00
1F00
1F00
1F00
1F00
1F00
ENDCHAR
STARTCHAR "U+e0a7"
ENCODING 167
SWIDTH 1041 0
DWIDTH 6 12
BBX 6 12 0 0
BITMAP
1F80
1F80
1F80
1F80
1F80
1F80
1F00
1F00
1F00
1F00
1F00
1F00
ENDCHAR
STARTCHAR "U+e0a8"
ENCODING 168
SWIDTH 1041 0
DWIDTH 6 12
BBX 6 12 0 0
BITMAP
0000
0000
0000
0000
0000
0000
0080
0080
0080
0080
0080
0080
ENDCHAR
STARTCHAR "U+e0a9"
ENCODING 169
SWIDTH 1041 0
DWIDTH 6 12
BBX 6 12 0 0
BITMAP
1F00
1F00
1F00
1F00
1F00
1F00
0080
0080
0080
0080
0080
0080
ENDCHAR
STARTCHAR "U+e0aa"
ENCODING 170
SWIDTH 1041 0
DWIDTH 6 12
BBX 6 12 0 0
BITMAP
0080
0080
0080
0080
0080
0080
0080
0080
0080
0080
0080
0080
ENDCHAR
STARTCHAR "U+e0ab"
ENCODING 171
SWIDTH 1041 0
DWIDTH 6 12
BBX 6 12 0 0
BITMAP
1F80
1F80
1F80
1F80
1F80
1F80
0080
0080
0080
0080
0080
0080
ENDCHAR
STARTCHAR "U+e0ac"
ENCODING 172
SWIDTH 1041 0
DWIDTH 6 12
BBX 6 12 0 0
BITMAP
0000
0000
0000
0000
0000
0000
1F80
1F80
1F80
1F80
1F80
1F80
ENDCHAR
STARTCHAR "U+e0ad"
ENCODING 173
SWIDTH 1041 0
DWIDTH 6 12
BBX 6 12 0 0
BITMAP
1F00
1F00
1F00
1F00
1F00
1F00
1F80
1F80
1F80
1F80
1F80
1F80
ENDCHAR
STARTCHAR "U+e0ae"
ENCODING 174
SWIDTH 1041 0
DWIDTH 6 12
BBX 6 12 0 0
BITMAP
0080
0080
0080
0080
0080
0080
1F80
1F80
1F80
1F80
1F80
1F80
ENDCHAR
STARTCHAR "U+e0af"
ENCODING 175
SWIDTH 1041 0
DWIDTH 6 12
BBX 6 12 0 0
BITMAP
1F80
1F80
1F80
1F80
1F80
1F80
1F80
1F80
1F80
1F80
1F80
1F80
ENDCHAR
STARTCHAR "U+e0b0"
ENCODING 176
SWIDTH 1041 0
DWIDTH 6 12
BBX 6 12 0 0
BITMAP
0000
0000
0000
0000
0000
0000
0000
0000
0000
0000
0000
0000
ENDCHAR
STARTCHAR "U+e0b1"
ENCODING 177
SWIDTH 1041 0
DWIDTH 6 12
BBX 6 12 0 0
BITMAP
1F00
1F00
1F00
1F00
1F00
1F00
0000
0000
0000
0000
0000
0000
ENDCHAR
STARTCHAR "U+e0b2"
ENCODING 178
SWIDTH 1041 0
DWIDTH 6 12
BBX 6 12 0 0
BITMAP
0080
0080
0080
0080
0080
0080
0000
0000
0000
0000
0000
0000
ENDCHAR
STARTCHAR "U+e0b3"
ENCODING 179
SWIDTH 1041 0
DWIDTH 6 12
BBX 6 12 0 0
BITMAP
1F80
1F80
1F80
1F80
1F80
1F80
0000
0000
0000
0000
0000
0000
ENDCHAR
STARTCHAR "U+e0b4"
ENCODING 180
SWIDTH 1041 0
DWIDTH 6 12
BBX 6 12 0 0
BITMAP
0000
0000
0000
0000
0000
0000
1F00
1F00
1F00
1F00
1F00
1F00
ENDCHAR
STARTCHAR "U+e0b5"
ENCODING 181
SWIDTH 1041 0
DWIDTH 6 12
BBX 6 12 0 0
BITMAP
1F00
1F00
1F00
1F00
1F00
1F00
1F00
1F00
1F00
1F00
1F00
1F00
ENDCHAR
STARTCHAR "U+e0b6"
ENCODING 182
SWIDTH 1041 0
DWIDTH 6 12
BBX 6 12 0 0
BITMAP
0080
0080
0080
0080
0080
0080
1F00
1F00
1F00
1F00
1F00
1F00
ENDCHAR
STARTCHAR "U+e0b7"
ENCODING 183
SWIDTH 1041 0
DWIDTH 6 12
BBX 6 12 0 0
BITMAP
1F80
1F80
1F80
1F80
1F80
1F80
1F00
1F00
1F00
1F00
1F00
1F00
ENDCHAR
STARTCHAR "U+e0b8"
ENCODING 184
SWIDTH 1041 0
DWIDTH 6 12
BBX 6 12 0 0
BITMAP
0000
0000
0000
0000
0000
0000
0080
0080
0080
0080
0080
0080
ENDCHAR
STARTCHAR "U+e0b9"
ENCODING 185
SWIDTH 1041 0
DWIDTH 6 12
BBX 6 12 0 0
BITMAP
1F00
1F00
1F00
1F00
1F00
1F00
0080
0080
0080
0080
0080
0080
ENDCHAR
STARTCHAR "U+e0ba"
ENCODING 186
SWIDTH 1041 0
DWIDTH 6 12
BBX 6 12 0 0
BITMAP
0080
0080
0080
0080
0080
0080
0080
0080
0080
0080
0080
0080
ENDCHAR
STARTCHAR "U+e0bb"
ENCODING 187
SWIDTH 1041 0
DWIDTH 6 12
BBX 6 12 0 0
BITMAP
1F80
1F80
1F80
1F80
1F80
1F80
0080
0080
0080
0080
0080
0080
ENDCHAR
STARTCHAR "U+e0bc"
ENCODING 188
SWIDTH 1041 0
DWIDTH 6 12
BBX 6 12 0 0
BITMAP
0000
0000
0000
0000
0000
0000
1F80
1F80
1F80
1F80
1F80
1F80
ENDCHAR
STARTCHAR "U+e0bd"
ENCODING 189
SWIDTH 1041 0
DWIDTH 6 12
BBX 6 12 0 0
BITMAP
1F00
1F00
1F00
1F00
1F00
1F00
1F80
1F80
1F80
1F80
1F80
1F80
ENDCHAR
STARTCHAR "U+e0be"
ENCODING 190
SWIDTH 1041 0
DWIDTH 6 12
BBX 6 12 0 0
BITMAP
0080
0080
0080
0080
0080
0080
1F80
1F80
1F80
1F80
1F80
1F80
ENDCHAR
STARTCHAR "U+e0bf"
ENCODING 191
SWIDTH 1041 0
DWIDTH 6 12
BBX 6 12 0 0
BITMAP
1F80
1F80
1F80
1F80
1F80
1F80
1F80
1F80
1F80
1F80
1F80
1F80
ENDCHAR
STARTCHAR "U+e0c0"
ENCODING 192
SWIDTH 1041 0
DWIDTH 6 12
BBX 6 12 0 0
BITMAP
0000
0000
0000
0000
0000
0000
0000
0000
0000
0000
0000
0000
ENDCHAR
STARTCHAR "U+e0c1"
ENCODING 193
SWIDTH 1041 0
DWIDTH 6 12
BBX 6 12 0 0
BITMAP
1F00
1F00
1F00
1F00
1F00
1F00
0000
0000
0000
0000
0000
0000
ENDCHAR
STARTCHAR "U+e0c2"
ENCODING 194
SWIDTH 1041 0
DWIDTH 6 12
BBX 6 12 0 0
BITMAP
0080
0080
0080
0080
0080
0080
0000
0000
0000
0000
0000
0000
ENDCHAR
STARTCHAR "U+e0c3"
ENCODING 195
SWIDTH 1041 0
DWIDTH 6 12
BBX 6 12 0 0
BITMAP
1F80
1F80
1F80
1F80
1F80
1F80
0000
0000
0000
0000
0000
0000
ENDCHAR
STARTCHAR "U+e0c4"
ENCODING 196
SWIDTH 1041 0
DWIDTH 6 12
BBX 6 12 0 0
BITMAP
0000
0000
0000
0000
0000
0000
1F00
1F00
1F00
1F00
1F00
1F00
ENDCHAR
STARTCHAR "U+e0c5"
ENCODING 197
SWIDTH 1041 0
DWIDTH 6 12
BBX 6 12 0 0
BITMAP
1F00
1F00
1F00
1F00
1F00
1F00
1F00
1F00
1F00
1F00
1F00
1F00
ENDCHAR
STARTCHAR "U+e0c6"
ENCODING 198
SWIDTH 1041 0
DWIDTH 6 12
BBX 6 12 0 0
BITMAP
0080
0080
0080
0080
0080
0080
1F00
1F00
1F00
1F00
1F00
1F00
ENDCHAR
STARTCHAR "U+e0c7"
ENCODING 199
SWIDTH 1041 0
DWIDTH 6 12
BBX 6 12 0 0
BITMAP
1F80
1F80
1F80
1F80
1F80
1F80
1F00
1F00
1F00
1F00
1F00
1F00
ENDCHAR
STARTCHAR "U+e0c8"
ENCODING 200
SWIDTH 1041 0
DWIDTH 6 12
BBX 6 12 0 0
BITMAP
0000
0000
0000
0000
0000
0000
0080
0080
0080
0080
0080
0080
ENDCHAR
STARTCHAR "U+e0c9"
ENCODING 201
SWIDTH 1041 0
DWIDTH 6 12
BBX 6 12 0 0
BITMAP
1F00
1F00
1F00
1F00
1F00
1F00
0080
0080
0080
0080
0080
0080
ENDCHAR
STARTCHAR "U+e0ca"
ENCODING 202
SWIDTH 1041 0
DWIDTH 6 12
BBX 6 12 0 0
BITMAP
0080
0080
0080
0080
0080
0080
0080
0080
0080
0080
0080
0080
ENDCHAR
STARTCHAR "U+e0cb"
ENCODING 203
SWIDTH 1041 0
DWIDTH 6 12
BBX 6 12 0 0
BITMAP
1F80
1F80
1F80
1F80
1F80
1F80
0080
0080
0080
0080
0080
0080
ENDCHAR
STARTCHAR "U+e0cc"
ENCODING 204
SWIDTH 1041 0
DWIDTH 6 12
BBX 6 12 0 0
BITMAP
0000
0000
0000
0000
0000
0000
1F80
1F80
1F80
1F80
1F80
1F80
ENDCHAR
STARTCHAR "U+e0cd"
ENCODING 205
SWIDTH 1041 0
DWIDTH 6 12
BBX 6 12 0 0
BITMAP
1F00
1F00
1F00
1F00
1F00
1F00
1F80
1F80
1F80
1F80
1F80
1F80
ENDCHAR
STARTCHAR "U+e0ce"
ENCODING 206
SWIDTH 1041 0
DWIDTH 6 12
BBX 6 12 0 0
BITMAP
0080
0080
0080
0080
0080
0080
1F80
1F80
1F80
1F80
1F80
1F80
ENDCHAR
STARTCHAR "U+e0cf"
ENCODING 207
SWIDTH 1041 0
DWIDTH 6 12
BBX 6 12 0 0
BITMAP
1F80
1F80
1F80
1F80
1F80
1F80
1F80
1F80
1F80
1F80
1F80
1F80
ENDCHAR
STARTCHAR "U+e0d0"
ENCODING 208
SWIDTH 1041 0
DWIDTH 6 12
BBX 6 12 0 0
BITMAP
0000
0000
0000
0000
0000
0000
0000
0000
0000
0000
0000
0000
ENDCHAR
STARTCHAR "U+e0d1"
ENCODING 209
SWIDTH 1041 0
DWIDTH 6 12
BBX 6 12 0 0
BITMAP
1F00
1F00
1F00
1F00
1F00
1F00
0000
0000
0000
0000
0000
0000
ENDCHAR
STARTCHAR "U+e0d2"
ENCODING 210
SWIDTH 1041 0
DWIDTH 6 12
BBX 6 12 0 0
BITMAP
0080
0080
0080
0080
0080
0080
0000
0000
0000
0000
0000
0000
ENDCHAR
STARTCHAR "U+e0d3"
ENCODING 211
SWIDTH 1041 0
DWIDTH 6 12
BBX 6 12 0 0
BITMAP
1F80
1F80
1F80
1F80
1F80
1F80
0000
0000
0000
0000
0000
0000
ENDCHAR
STARTCHAR "U+e0d4"
ENCODING 212
SWIDTH 1041 0
DWIDTH 6 12
BBX 6 12 0 0
BITMAP
0000
0000
0000
0000
0000
0000
1F00
1F00
1F00
1F00
1F00
1F00
ENDCHAR
STARTCHAR "U+e0d5"
ENCODING 213
SWIDTH 1041 0
DWIDTH 6 12
BBX 6 12 0 0
BITMAP
1F00
1F00
1F00
1F00
1F00
1F00
1F00
1F00
1F00
1F00
1F00
1F00
ENDCHAR
STARTCHAR "U+e0d6"
ENCODING 214
SWIDTH 1041 0
DWIDTH 6 12
BBX 6 12 0 0
BITMAP
0080
0080
0080
0080
0080
0080
1F00
1F00
1F00
1F00
1F00
1F00
ENDCHAR
STARTCHAR "U+e0d7"
ENCODING 215
SWIDTH 1041 0
DWIDTH 6 12
BBX 6 12 0 0
BITMAP
1F80
1F80
1F80
1F80
1F80
1F80
1F00
1F00
1F00
1F00
1F00
1F00
ENDCHAR
STARTCHAR "U+e0d8"
ENCODING 216
SWIDTH 1041 0
DWIDTH 6 12
BBX 6 12 0 0
BITMAP
0000
0000
0000
0000
0000
0000
0080
0080
0080
0080
0080
0080
ENDCHAR
STARTCHAR "U+e0d9"
ENCODING 217
SWIDTH 1041 0
DWIDTH 6 12
BBX 6 12 0 0
BITMAP
1F00
1F00
1F00
1F00
1F00
1F00
0080
0080
0080
0080
0080
0080
ENDCHAR
STARTCHAR "U+e0da"
ENCODING 218
SWIDTH 1041 0
DWIDTH 6 12
BBX 6 12 0 0
BITMAP
0080
0080
0080
0080
0080
0080
0080
0080
0080
0080
0080
0080
ENDCHAR
STARTCHAR "U+e0db"
ENCODING 219
SWIDTH 1041 0
DWIDTH 6 12
BBX 6 12 0 0
BITMAP
1F80
1F80
1F80
1F80
1F80
1F80
0080
0080
0080
0080
0080
0080
ENDCHAR
STARTCHAR "U+e0dc"
ENCODING 220
SWIDTH 1041 0
DWIDTH 6 12
BBX 6 12 0 0
BITMAP
0000
0000
0000
0000
0000
0000
1F80
1F80
1F80
1F80
1F80
1F80
ENDCHAR
STARTCHAR "U+e0dd"
ENCODING 221
SWIDTH 1041 0
DWIDTH 6 12
BBX 6 12 0 0
BITMAP
1F00
1F00
1F00
1F00
1F00
1F00
1F80
1F80
1F80
1F80
1F80
1F80
ENDCHAR
STARTCHAR "U+e0de"
ENCODING 222
SWIDTH 1041 0
DWIDTH 6 12
BBX 6 12 0 0
BITMAP
0080
0080
0080
0080
0080
0080
1F80
1F80
1F80
1F80
1F80
1F80
ENDCHAR
STARTCHAR "U+e0df"
ENCODING 223
SWIDTH 1041 0
DWIDTH 6 12
BBX 6 12 0 0
BITMAP
1F80
1F80
1F80
1F80
1F80
1F80
1F80
1F80
1F80
1F80
1F80
1F80
ENDCHAR
STARTCHAR "U+e0e0"
ENCODING 224
SWIDTH 1041 0
DWIDTH 6 12
BBX 6 12 0 0
BITMAP
0000
0000
0000
0000
0000
0000
0000
0000
0000
0000
0000
0000
ENDCHAR
STARTCHAR "U+e0e1"
ENCODING 225
SWIDTH 1041 0
DWIDTH 6 12
BBX 6 12 0 0
BITMAP
1F00
1F00
1F00
1F00
1F00
1F00
0000
0000
0000
0000
0000
0000
ENDCHAR
STARTCHAR "U+e0e2"
ENCODING 226
SWIDTH 1041 0
DWIDTH 6 12
BBX 6 12 0 0
BITMAP
0080
0080
0080
0080
0080
0080
0000
0000
0000
0000
0000
0000
ENDCHAR
STARTCHAR "U+e0e3"
ENCODING 227
SWIDTH 1041 0
DWIDTH 6 12
BBX 6 12 0 0
BITMAP
1F80
1F80
1F80
1F80
1F80
1F80
0000
0000
0000
0000
0000
0000
ENDCHAR
STARTCHAR "U+e0e4"
ENCODING 228
SWIDTH 1041 0
DWIDTH 6 12
BBX 6 12 0 0
BITMAP
0000
0000
0000
0000
0000
0000
1F00
1F00
1F00
1F00
1F00
1F00
ENDCHAR
STARTCHAR "U+e0e5"
ENCODING 229
SWIDTH 1041 0
DWIDTH 6 12
BBX 6 12 0 0
BITMAP
1F00
1F00
1F00
1F00
1F00
1F00
1F00
1F00
1F00
1F00
1F00
1F00
ENDCHAR
STARTCHAR "U+e0e6"
ENCODING 230
SWIDTH 1041 0
DWIDTH 6 12
BBX 6 12 0 0
BITMAP
0080
0080
0080
0080
0080
0080
1F00
1F00
1F00
1F00
1F00
1F00
ENDCHAR
STARTCHAR "U+e0e7"
ENCODING 231
SWIDTH 1041 0
DWIDTH 6 12
BBX 6 12 0 0
BITMAP
1F80
1F80
1F80
1F80
1F80
1F80
1F00
1F00
1F00
1F00
1F00
1F00
ENDCHAR
STARTCHAR "U+e0e8"
ENCODING 232
SWIDTH 1041 0
DWIDTH 6 12
BBX 6 12 0 0
BITMAP
0000
0000
0000
0000
0000
0000
0080
0080
0080
0080
0080
0080
ENDCHAR
STARTCHAR "U+e0e9"
ENCODING 233
SWIDTH 1041 0
DWIDTH 6 12
BBX 6 12 0 0
BITMAP
1F00
1F00
1F00
1F00
1F00
1F00
0080
0080
0080
0080
0080
0080
ENDCHAR
STARTCHAR "U+e0ea"
ENCODING 234
SWIDTH 1041 0
DWIDTH 6 12
BBX 6 12 0 0
BITMAP
0080
0080
0080
0080
0080
0080
0080
0080
0080
0080
0080
0080
ENDCHAR
STARTCHAR "U+e0eb"
ENCODING 235
SWIDTH 1041 0
DWIDTH 6 12
BBX 6 12 0 0
BITMAP
1F80
1F80
1F80
1F80
1F80
1F80
0080
0080
0080
0080
0080
0080
ENDCHAR
STARTCHAR "U+e0ec"
ENCODING 236
SWIDTH 1041 0
DWIDTH 6 12
BBX 6 12 0 0
BITMAP
0000
0000
0000
0000
0000
0000
1F80
1F80
1F80
1F80
1F80
1F80
ENDCHAR
STARTCHAR "U+e0ed"
ENCODING 237
SWIDTH 1041 0
DWIDTH 6 12
BBX 6 12 0 0
BITMAP
1F00
1F00
1F00
1F00
1F00
1F00
1F80
1F80
1F80
1F80
1F80
1F80
ENDCHAR
STARTCHAR "U+e0ee"
ENCODING 238
SWIDTH 1041 0
DWIDTH 6 12
BBX 6 12 0 0
BITMAP
0080
0080
0080
0080
0080
0080
1F80
1F80
1F80
1F80
1F80
1F80
ENDCHAR
STARTCHAR "U+e0ef"
ENCODING 239
SWIDTH 1041 0
DWIDTH 6 12
BBX 6 12 0 0
BITMAP
1F80
1F80
1F80
1F80
1F80
1F80
1F80
1F80
1F80
1F80
1F80
1F80
ENDCHAR
STARTCHAR "U+e0f0"
ENCODING 240
SWIDTH 1041 0
DWIDTH 6 12
BBX 6 12 0 0
BITMAP
0000
0000
0000
0000
0000
0000
0000
0000
0000
0000
0000
0000
ENDCHAR
STARTCHAR "U+e0f1"
ENCODING 241
SWIDTH 1041 0
DWIDTH 6 12
BBX 6 12 0 0
BITMAP
1F00
1F00
1F00
1F00
1F00
1F00
0000
0000
0000
0000
0000
0000
ENDCHAR
STARTCHAR "U+e0f2"
ENCODING 242
SWIDTH 1041 0
DWIDTH 6 12
BBX 6 12 0 0
BITMAP
0080
0080
0080
0080
0080
0080
0000
0000
0000
0000
0000
0000
ENDCHAR
STARTCHAR "U+e0f3"
ENCODING 243
SWIDTH 1041 0
DWIDTH 6 12
BBX 6 12 0 0
BITMAP
1F80
1F80
1F80
1F80
1F80
1F80
0000
0000
0000
0000
0000
0000
ENDCHAR
STARTCHAR "U+e0f4"
ENCODING 244
SWIDTH 1041 0
DWIDTH 6 12
BBX 6 12 0 0
BITMAP
0000
0000
0000
0000
0000
0000
1F00
1F00
1F00
1F00
1F00
1F00
ENDCHAR
STARTCHAR "U+e0f5"
ENCODING 245
SWIDTH 1041 0
DWIDTH 6 12
BBX 6 12 0 0
BITMAP
1F00
1F00
1F00
1F00
1F00
1F00
1F00
1F00
1F00
1F00
1F00
1F00
ENDCHAR
STARTCHAR "U+e0f6"
ENCODING 246
SWIDTH 1041 0
DWIDTH 6 12
BBX 6 12 0 0
BITMAP
0080
0080
0080
0080
0080
0080
1F00
1F00
1F00
1F00
1F00
1F00
ENDCHAR
STARTCHAR "U+e0f7"
ENCODING 247
SWIDTH 1041 0
DWIDTH 6 12
BBX 6 12 0 0
BITMAP
1F80
1F80
1F80
1F80
1F80
1F80
1F00
1F00
1F00
1F00
1F00
1F00
ENDCHAR
STARTCHAR "U+e0f8"
ENCODING 248
SWIDTH 1041 0
DWIDTH 6 12
BBX 6 12 0 0
BITMAP
0000
0000
0000
0000
0000
0000
0080
0080
0080
0080
0080
0080
ENDCHAR
STARTCHAR "U+e0f9"
ENCODING 249
SWIDTH 1041 0
DWIDTH 6 12
BBX 6 12 0 0
BITMAP
1F00
1F00
1F00
1F00
1F00
1F00
0080
0080
0080
0080
0080
0080
ENDCHAR
STARTCHAR "U+e0fa"
ENCODING 250
SWIDTH 1041 0
DWIDTH 6 12
BBX 6 12 0 0
BITMAP
0080
0080
0080
0080
0080
0080
0080
0080
0080
0080
0080
0080
ENDCHAR
STARTCHAR "U+e0fb"
ENCODING 251
SWIDTH 1041 0
DWIDTH 6 12
BBX 6 12 0 0
BITMAP
1F80
1F80
1F80
1F80
1F80
1F80
0080
0080
0080
0080
0080
0080
ENDCHAR
STARTCHAR "U+e0fc"
ENCODING 252
SWIDTH 1041 0
DWIDTH 6 12
BBX 6 12 0 0
BITMAP
0000
0000
0000
0000
0000
0000
1F80
1F80
1F80
1F80
1F80
1F80
ENDCHAR
STARTCHAR "U+e0fd"
ENCODING 253
SWIDTH 1041 0
DWIDTH 6 12
BBX 6 12 0 0
BITMAP
1F00
1F00
1F00
1F00
1F00
1F00
1F80
1F80
1F80
1F80
1F80
1F80
ENDCHAR
STARTCHAR "U+e0fe"
ENCODING 254
SWIDTH 1041 0
DWIDTH 6 12
BBX 6 12 0 0
BITMAP
0080
0080
0080
0080
0080
0080
1F80
1F80
1F80
1F80
1F80
1F80
ENDCHAR
STARTCHAR "U+e0ff"
ENCODING 255
SWIDTH 1041 0
DWIDTH 6 12
BBX 6 12 0 0
BITMAP
1F80
1F80
1F80
1F80
1F80
1F80
1F80
1F80
1F80
1F80
1F80
1F80
ENDCHAR
